<svg id="Layer_1" data-name="Layer 1" xmlns="http://www.w3.org/2000/svg" viewBox="0 0 1920 1705"><defs><style>.cls-1{fill:#eee;}.cls-2{fill:#ddd;}.cls-3{fill:#ccc;}.cls-4{fill:#bbb;}.cls-5{fill:#aaa;}</style></defs><g id="Group_15" data-name="Group 15"><path id="wave" class="cls-1" d="M0,145H53.33c53.34,0,160,0,266.67,84.51,106.67,85.41,213.33,253.07,320,241.74S853.33,265.08,960,205.49c106.67-60.49,213.33,12,320,12S1493.33,145,1600,96.74C1706.67,47.58,1813.33,24.92,1866.67,12L1920,0V725H0Z" transform="translate(0 0)"/><path id="wave-2" class="cls-2" d="M0,381H53.33c53.34,0,160,0,266.67,84.51,106.67,85.41,213.33,253.07,320,241.74S853.33,501.08,960,441.49c106.67-60.49,213.33,12,320,12s213.33-72.5,320-120.76c106.67-49.16,213.33-71.82,266.67-84.73L1920,236V961H0Z" transform="translate(0 0)"/><path id="wave-3" class="cls-3" d="M0,629H53.33c53.34,0,160,0,266.67,84.51,106.67,85.41,213.33,253.07,320,241.74S853.33,749.08,960,689.49c106.67-60.49,213.33,12,320,12s213.33-72.5,320-120.76c106.67-49.16,213.33-71.82,266.67-84.73L1920,484v725H0Z" transform="translate(0 0)"/><path id="wave-4" class="cls-4" d="M0,880H53.33c53.34,0,160,0,266.67,84.51,106.67,85.41,213.33,253.07,320,241.74s213.33-206.17,320-265.76c106.67-60.49,213.33,12,320,12s213.33-72.5,320-120.76c106.67-49.16,213.33-71.82,266.67-84.73L1920,735v725H0Z" transform="translate(0 0)"/><path id="wave-5" class="cls-5" d="M0,1125H53.33c53.34,0,160,0,266.67,84.51,106.67,85.41,213.33,253.07,320,241.74s213.33-206.17,320-265.76c106.67-60.49,213.33,12,320,12s213.33-72.5,320-120.76c106.67-49.16,213.33-71.82,266.67-84.73L1920,980v725H0Z" transform="translate(0 0)"/></g></svg>